PathFileType	4	(X/Y/Z)	D:\Share\Shared_Data\Ergonomics\Sit To Stand Pertubation\S2\Perturbed.trc
DataRate	CameraRate	NumFrames	NumMarkers	Units	OrigDataRate	OrigDataStartFrame	OrigNumFrames	
100	100	6	18	m	100	8791	201
Frame#	Time	R_Toe			R_ASIS			R_Pelvis			V_Sacral			L_Pelvis			L_ASIS			Clavical			R_Acromium			L_Acromium			Sternum			Torso			R_Thigh_Med			R_Thigh_Lat			R_Thigh			R_Shank_Med			R_Shank_Lat			R_Shank			R_Heel			
		X1	Y1	Z1	X2	Y2	Z2	X3	Y3	Z3	X4	Y4	Z4	X5	Y5	Z5	X6	Y6	Z6	X7	Y7	Z7	X8	Y8	Z8	X9	Y9	Z9	X10	Y10	Z10	X11	Y11	Z11	X12	Y12	Z12	X13	Y13	Z13	X14	Y14	Z14	X15	Y15	Z15	X16	Y16	Z16	X17	Y17	Z17	X18	Y18	Z18	

8791	87.9	0.43248587	0.067193886	0.14349506	0.18776947	0.83841724	0.12905943	0.12454497	0.88033423	0.17611397	-0.0302624	0.89296082	0.023070057	0.075165558	0.89190845	-0.16126721	0.16696567	0.85556323	-0.13758492	0.41340714	1.1713563	-0.014493687	0.35548315	1.245869	0.19114557	0.33919598	1.2527211	-0.19870709	0.37139456	1.0162773	-0.010872002	0.4008425	1.1356493	-0.12513689	0.42895142	0.48236157	0.10866102	0.40844055	0.50047879	0.20739276	0.34606827	0.68361945	0.17052618	0.29876651	0.11020239	0.11067166	0.27702399	0.097082291	0.20384377	0.36652832	0.35358252	0.22849426	0.19358032	0.058627808	0.1493905
8792	87.91	0.43244861	0.067164421	0.14359969	0.19219376	0.84595807	0.12930295	0.1286125	0.88715118	0.17636258	-0.026091171	0.89998053	0.023188713	0.078952835	0.89850684	-0.16129019	0.17097818	0.86290784	-0.13777336	0.41383273	1.1825078	-0.014341002	0.35523669	1.255848	0.19149809	0.33867041	1.2631912	-0.19844878	0.37356934	1.0269022	-0.011061934	0.40196329	1.1466653	-0.12519234	0.42808673	0.48276541	0.10917939	0.40752884	0.50089395	0.20752052	0.34866409	0.68500055	0.17115466	0.29876431	0.11030263	0.1107989	0.27696509	0.097067604	0.20391824	0.36554092	0.3540065	0.22871616	0.19358914	0.058623837	0.14937839
8793	87.92	0.4324129	0.06708699	0.14371165	0.19663866	0.85344751	0.1295472	0.13269774	0.89386182	0.17659192	-0.02189295	0.90689484	0.023319923	0.08277993	0.90501892	-0.16131641	0.17503455	0.87020203	-0.13795369	0.41422849	1.1935361	-0.014204422	0.35492346	1.2656954	0.19185606	0.33806161	1.2735123	-0.19818396	0.37575504	1.0374042	-0.011250978	0.40298846	1.157552	-0.1252626	0.4271311	0.48319818	0.10973455	0.40651666	0.50133026	0.20768617	0.3511716	0.68631805	0.17181633	0.29877542	0.11039661	0.11091768	0.27691284	0.097063873	0.20398076	0.36449908	0.35444147	0.2289624	0.193608	0.058615139	0.14934656
8794	87.93	0.43238699	0.066932144	0.14382593	0.20107089	0.86086469	0.12977516	0.13680428	0.9004632	0.17679865	-0.01766486	0.91371692	0.023455032	0.086638008	0.91144073	-0.16134018	0.17912959	0.87744263	-0.1381033	0.41461166	1.2044259	-0.014082047	0.35455469	1.2753961	0.19221588	0.33737833	1.2836664	-0.19791312	0.37795987	1.047766	-0.011436912	0.40392123	1.1682925	-0.12534459	0.4260849	0.48366077	0.11031034	0.40540472	0.50179214	0.20787851	0.35358432	0.68757605	0.17249521	0.2988082	0.11047863	0.11101612	0.27687482	0.09707444	0.20402208	0.3634108	0.354888	0.22922472	0.19364052	0.058605381	0.1492932
8795	87.94	0.43237729	0.066684715	0.14393605	0.20545067	0.86818799	0.12996883	0.14093526	0.90694867	0.17698523	-0.013405241	0.92044806	0.023586452	0.09051931	0.91776624	-0.16135698	0.18324834	0.88462311	-0.13820912	0.41499289	1.2151615	-0.01397069	0.35414001	1.2849363	0.19257402	0.33663196	1.2936366	-0.19763719	0.38017755	1.0579735	-0.011616159	0.40476807	1.1788716	-0.12543269	0.42494785	0.48415186	0.11088663	0.40419443	0.50228262	0.20808302	0.35589532	0.68877661	0.17317311	0.29886685	0.11054347	0.1110834	0.27685571	0.097101532	0.20403442	0.36228217	0.35534625	0.22949117	0.19368785	0.058598969	0.14922078
8796	87.95	0.43238766	0.066346878	0.14403523	0.20973996	0.87539587	0.13011279	0.14509483	0.91331146	0.17715482	-0.0091148262	0.92707898	0.023708265	0.094418213	0.92398688	-0.1613643	0.18736855	0.89173358	-0.13826505	0.41537408	1.2257272	-0.013865532	0.35368814	1.2943049	0.19292903	0.33583383	1.3034088	-0.19735672	0.38238962	1.0680173	-0.011783783	0.40553549	1.1892767	-0.12551942	0.42371927	0.48466861	0.11144202	0.40288831	0.50280304	0.20828287	0.35810001	0.68991962	0.17383139	0.29895068	0.11058758	0.11111192	0.2768562	0.097145561	0.20401288	0.36111716	0.35581616	0.22974753	0.19374829	0.058600883	0.14913559
